<?xml version="1.0" encoding="UTF-8" standalone="no"?>
<svg
   version="1.0"
   width="3060.000000pt"
   height="810.000000pt"
   viewBox="0 0 3060.000000 810.000000"
   preserveAspectRatio="xMidYMid meet"
   id="svg299"
   sodipodi:docname="logo-horizontal-fon.svg"
   inkscape:version="1.2.2 (732a01da63, 2022-12-09)"
   xmlns:inkscape="http://www.inkscape.org/namespaces/inkscape"
   xmlns:sodipodi="http://sodipodi.sourceforge.net/DTD/sodipodi-0.dtd"
   xmlns="http://www.w3.org/2000/svg"
   xmlns:svg="http://www.w3.org/2000/svg">
  <defs
     id="defs303" />
  <sodipodi:namedview
     id="namedview301"
     pagecolor="#ffffff"
     bordercolor="#000000"
     borderopacity="0.25"
     inkscape:showpageshadow="2"
     inkscape:pageopacity="0.0"
     inkscape:pagecheckerboard="0"
     inkscape:deskcolor="#d1d1d1"
     inkscape:document-units="pt"
     showgrid="false"
     inkscape:zoom="0.21247866"
     inkscape:cx="2357.8839"
     inkscape:cy="42.357196"
     inkscape:window-width="1366"
     inkscape:window-height="745"
     inkscape:window-x="-8"
     inkscape:window-y="-8"
     inkscape:window-maximized="1"
     inkscape:current-layer="g297" />
  <g
     transform="translate(0.000000,810.000000) scale(0.100000,-0.100000)"
     fill="#000000"
     stroke="none"
     id="g297">
    <path
       d="M15660 6596 c-69 -18 -137 -36 -152 -39 l-28 -7 0 -279 0 -279 -72 26 c-66 24 -86 27 -218 27 -162 0 -204 -9 -320 -72 -162 -88 -276 -236 -332 -430 -20 -67 -23 -101 -23 -248 0 -190 15 -266 78 -394 70 -144 227 -261 397 -297 148 -31 363 0 452 66 36 27 38 26 38 -15 l0 -35 165 0 165 0 0 1005 c0 798 -3 1005 -12 1004 -7 0 -69 -15 -138 -33z m-306 -840 c27 -8 66 -26 87 -40 l39 -26 0 -370 0 -370 -37 -24 c-67 -43 -137 -59 -223 -53 -214 17 -334 132 -361 350 -27 208 40 406 164 484 93 59 231 79 331 49z"
       id="path157" />
    <path
       d="M18370 6591 l-155 -37 -3 -283 c-2 -264 -3 -283 -20 -275 -87 37 -135 47 -247 52 -139 5 -220 -10 -318 -59 -159 -79 -276 -210 -337 -379 -41 -112 -54 -209 -47 -368 9 -215 55 -345 167 -466 69 -74 137 -118 237 -153 68 -23 94 -27 208 -27 110 -1 141 3 200 22 39 13 87 34 107 48 21 13 40 24 43 24 3 0 5 -16 5 -35 l0 -35 165 0 165 0 0 1005 c0 553 -3 1005 -7 1004 -5 0 -78 -17 -163 -38z m-255 -847 c22 -10 52 -27 68 -37 l27 -18 0 -369 0 -369 -27 -19 c-16 -11 -56 -30 -91 -42 -150 -55 -363 12 -443 138 -39 62 -58 129 -65 232 -19 256 84 441 274 496 66 19 206 13 257 -12z"
       id="path159" />
    <path
       d="M8675 6555 c-108 -54 -141 -198 -68 -293 59 -78 186 -95 261 -36 45 37 82 106 82 154 -1 70 -59 155 -123 179 -41 16 -117 13 -152 -4z"
       id="path161" />
    <path
       d="M14085 6556 c-63 -29 -115 -110 -115 -179 0 -46 38 -115 82 -150 65 -52 170 -47 239 10 44 37 61 78 61 144 0 68 -19 107 -75 152 -31 26 -48 32 -100 34 -38 2 -73 -2 -92 -11z"
       id="path163" />
    <path
       d="M25942 6549 c-109 -54 -136 -201 -54 -291 43 -48 85 -68 142 -68 110 0 190 80 190 190 0 147 -145 235 -278 169z"
       id="path165" />
    <path
       d="M530 4405 l0 -2155 2155 0 2155 0 0 2155 0 2155 -2155 0 -2155 0 0 -2155z m920 1375 l0 -650 255 0 255 0 0 650 0 650 330 0 330 0 0 -980 0 -980 -920 0 -920 0 0 980 0 980 335 0 335 0 0 -650z m3128 323 l-3 -328 -588 -3 -588 -2 3 -128 3 -127 458 -3 457 -2 0 -325 0 -325 -460 0 -460 0 0 -200 0 -200 -330 0 -330 0 0 985 0 985 920 0 920 0 -2 -327z m-1960 -2485 l-3 -723 -582 -3 -583 -2 0 -260 0 -260 -332 2 -333 3 -3 983 -2 982 920 0 920 0 -2 -722z m1962 457 l0 -265 -590 0 -590 0 0 -125 0 -125 590 0 590 0 0 -590 0 -590 -920 0 -920 0 0 265 0 265 655 0 655 0 0 60 0 60 -652 2 -653 3 -3 653 -2 652 920 0 920 0 0 -265z"
       id="path167"
       style="fill:#ff0000" />
    <path
       d="M2100 5645 l0 -655 -400 0 -400 0 0 650 0 650 -190 0 -190 0 0 -845 0 -845 780 0 780 0 0 850 0 850 -190 0 -190 0 0 -655z"
       id="path169"
       style="fill:#ff0000" />
    <path
       d="M2880 5450 l0 -850 195 0 195 0 0 195 0 195 455 0 455 0 0 195 0 195 -455 0 -455 0 0 265 0 265 585 0 585 0 0 195 0 195 -780 0 -780 0 0 -850z"
       id="path171"
       style="fill:#ff0000" />
    <path
       d="M920 3355 l0 -845 195 0 195 0 0 265 0 265 585 0 585 0 0 580 0 580 -780 0 -780 0 0 -845z m1180 265 l0 -330 -400 0 -400 0 0 330 0 330 400 0 400 0 0 -330z"
       id="path173"
       style="fill:#ff0000" />
    <path
       d="M1450 3620 l0 -190 255 0 255 0 0 190 0 190 -255 0 -255 0 0 -190z"
       id="path175"
       style="fill:#ff0000" />
    <path
       d="M2880 3680 l0 -520 655 0 655 0 -2 -197 -3 -198 -652 -3 -653 -2 0 -125 0 -125 780 0 780 0 0 455 0 455 -585 0 -585 0 0 265 0 265 590 0 590 0 0 125 0 125 -785 0 -785 0 0 -520z"
       id="path177"
       style="fill:#ff0000" />
    <path
       d="M5374 6536 c-3 -8 -4 -337 -2 -732 4 -644 6 -725 21 -779 63 -219 216 -363 440 -415 111 -25 213 -31 344 -20 199 18 341 78 459 195 78 77 123 153 149 254 14 54 16 151 15 779 0 394 0 720 0 725 0 4 -75 6 -167 5 l-168 -3 -5 -705 -5 -705 -25 -50 c-36 -73 -106 -137 -182 -166 -53 -20 -81 -24 -173 -24 -98 0 -116 3 -166 26 -71 33 -125 87 -158 158 l-26 56 -5 705 -5 705 -168 2 c-131 1 -169 -1 -173 -11z"
       id="path179" />
    <path
       d="M19430 5585 l0 -965 170 0 170 0 0 440 0 440 340 0 340 0 0 145 0 145 -340 0 -340 0 0 225 0 225 465 0 466 0 -3 153 -3 152 -632 3 -633 2 0 -965z"
       id="path181" />
    <path
       d="M7573 6035 c-71 -19 -146 -58 -192 -101 l-39 -34 -30 65 -31 65 -120 0 -121 0 0 -705 0 -705 168 0 167 0 -3 501 c-3 563 -8 523 74 580 73 50 135 69 225 70 135 1 212 -49 255 -166 17 -45 19 -93 22 -517 l3 -468 165 0 165 0 -3 508 c-4 457 -6 512 -22 562 -61 183 -186 304 -357 345 -80 19 -256 18 -326 0z"
       id="path183" />
    <path
       d="M10882 6030 c-237 -62 -423 -249 -494 -495 -30 -106 -33 -329 -5 -448 63 -267 258 -444 539 -488 87 -14 294 -6 388 15 87 19 166 49 223 86 l48 30 -52 103 c-29 56 -59 112 -67 124 l-14 22 -50 -35 c-79 -54 -143 -69 -293 -69 -120 0 -134 2 -187 27 -113 53 -191 155 -205 266 l-6 52 501 0 501 0 13 43 c19 66 16 260 -6 332 -51 170 -169 312 -317 383 -46 23 -119 48 -161 56 -106 22 -264 20 -356 -4z m308 -270 c56 -15 127 -65 155 -111 33 -51 55 -112 55 -150 l0 -29 -341 0 -341 0 6 28 c14 55 64 148 101 186 42 42 103 73 166 84 51 9 152 5 199 -8z"
       id="path185" />
    <path
       d="M12418 6036 c-68 -20 -129 -51 -176 -91 l-41 -36 -3 58 -3 58 -165 0 -165 0 -3 -660 c-2 -363 0 -679 3 -702 l6 -43 162 0 162 0 -3 377 c-4 520 5 579 109 688 52 55 103 82 167 89 47 4 129 -12 175 -36 21 -10 40 -18 40 -16 1 2 32 65 70 141 37 75 67 139 67 141 0 2 -21 12 -47 21 -65 23 -289 30 -355 11z"
       id="path187" />
    <path
       d="M13103 6030 c-95 -25 -146 -52 -209 -112 -77 -72 -99 -129 -99 -253 0 -90 3 -105 29 -156 31 -63 97 -135 165 -182 24 -16 99 -56 165 -87 156 -72 177 -84 215 -116 89 -74 86 -210 -6 -247 -114 -45 -282 -19 -404 63 -24 16 -47 26 -50 22 -11 -13 -109 -234 -109 -247 0 -13 150 -86 220 -106 28 -8 105 -13 205 -14 141 0 169 3 235 24 99 31 136 50 196 104 89 80 131 192 121 321 -8 109 -38 177 -111 250 -64 66 -131 103 -346 196 -116 49 -165 87 -181 140 -10 32 -9 44 7 76 34 67 61 79 177 78 109 -1 186 -21 247 -64 17 -12 33 -21 35 -19 3 4 95 250 95 255 0 8 -168 65 -232 78 -106 22 -273 20 -365 -4z"
       id="path189" />
    <path
       d="M16250 6035 c-88 -20 -190 -57 -190 -68 0 -11 62 -240 66 -246 1 -1 31 6 66 18 135 45 307 49 414 10 82 -31 144 -112 144 -189 0 -28 -2 -30 -27 -23 -16 5 -86 7 -158 7 -218 -2 -388 -57 -507 -164 -118 -105 -173 -292 -137 -461 32 -149 118 -244 275 -300 83 -30 293 -33 374 -5 85 29 146 62 183 101 l34 35 11 -24 c19 -42 76 -99 117 -117 82 -38 195 -18 251 43 l35 39 -25 23 c-68 64 -86 150 -86 414 0 557 -56 743 -256 849 -98 52 -161 64 -349 68 -124 3 -187 0 -235 -10z m483 -754 c22 -9 23 -13 20 -107 -4 -130 -23 -194 -72 -243 -49 -49 -115 -71 -218 -73 -100 -1 -160 24 -195 80 -29 46 -32 159 -6 208 41 75 126 125 248 144 60 9 188 4 223 -9z"
       id="path191" />
    <path
       d="M21410 6040 c-59 -14 -132 -49 -175 -84 -22 -18 -44 -35 -49 -37 -5 -2 -10 21 -10 51 l-1 55 -167 3 -168 2 0 -705 0 -705 165 0 c91 0 166 1 167 3 1 1 4 207 7 457 l6 455 28 57 c79 160 226 220 387 155 l61 -25 69 139 70 139 -28 14 c-65 33 -269 48 -362 26z"
       id="path193" />
    <path
       d="M22020 6034 c-73 -16 -190 -55 -190 -63 0 -3 15 -60 34 -126 38 -136 26 -129 146 -94 85 24 266 30 335 11 102 -29 162 -95 173 -189 l5 -43 -34 7 c-60 14 -260 7 -348 -11 -114 -23 -193 -57 -272 -115 -142 -105 -208 -278 -179 -466 28 -184 143 -299 340 -341 88 -19 237 -14 313 10 70 22 164 75 191 107 l24 28 30 -49 c17 -27 49 -61 73 -77 37 -25 52 -28 118 -28 87 1 136 19 170 66 l22 30 -35 39 c-65 73 -71 116 -80 575 -6 270 -22 378 -75 490 -57 123 -176 206 -343 239 -96 20 -327 20 -418 0z m484 -750 l29 -6 -6 -114 c-4 -92 -10 -124 -30 -168 -42 -91 -123 -136 -251 -139 -114 -3 -176 25 -212 96 -19 36 -21 129 -5 179 16 49 86 112 147 132 93 30 238 39 328 20z"
       id="path195" />
    <path
       d="M23603 6035 c-71 -19 -146 -58 -191 -100 l-38 -34 -32 65 -32 65 -118 -3 -117 -3 -3 -702 -2 -703 170 0 170 0 0 514 0 514 39 31 c60 48 139 83 204 91 150 17 253 -34 299 -148 23 -56 23 -64 26 -529 l3 -473 165 0 164 0 0 478 c0 380 -3 491 -15 546 -42 201 -179 347 -366 391 -80 19 -256 18 -326 0z"
       id="path197" />
    <path
       d="M25010 6035 c-273 -55 -477 -243 -547 -505 -25 -92 -25 -358 0 -450 64 -240 227 -403 467 -467 92 -25 366 -24 464 0 75 19 236 94 243 114 3 7 -21 68 -53 137 l-59 125 -30 -23 c-46 -35 -124 -72 -184 -86 -78 -18 -231 -8 -306 20 -155 59 -239 236 -221 462 22 264 164 409 401 411 109 0 183 -19 256 -68 29 -20 55 -32 59 -28 4 4 35 57 70 117 47 82 60 114 53 125 -16 27 -174 101 -248 116 -86 18 -276 18 -365 0z"
       id="path199" />
    <path
       d="M26663 6030 c-95 -25 -146 -52 -209 -112 -76 -71 -99 -129 -99 -248 0 -84 3 -102 29 -158 45 -98 138 -178 284 -248 242 -115 277 -137 308 -197 19 -36 20 -117 2 -146 -55 -91 -294 -84 -448 13 -30 19 -58 32 -61 28 -10 -12 -109 -238 -109 -249 0 -12 135 -76 210 -100 71 -22 338 -25 420 -4 149 37 257 117 312 229 31 63 33 73 33 172 -1 140 -24 200 -110 286 -65 66 -121 98 -310 178 -134 57 -184 90 -208 138 -37 75 16 160 109 174 95 14 240 -15 309 -61 20 -14 39 -25 40 -23 4 4 95 247 95 253 0 9 -163 65 -232 79 -106 22 -273 20 -365 -4z"
       id="path201" />
    <path
       d="M27935 6034 c-273 -61 -468 -246 -535 -510 -29 -113 -30 -327 -1 -439 64 -246 228 -412 466 -472 97 -24 372 -24 465 0 57 15 199 78 239 106 13 8 5 30 -43 135 -33 69 -62 126 -66 126 -5 0 -31 -15 -59 -34 -84 -57 -140 -71 -276 -71 -101 1 -129 5 -179 24 -98 39 -164 111 -202 221 -29 85 -27 290 4 386 41 123 126 213 238 249 122 40 307 14 403 -55 24 -18 44 -30 46 -28 21 25 135 240 130 248 -11 17 -128 78 -195 100 -87 30 -329 38 -435 14z"
       id="path203" />
    <path
       d="M29120 6035 c-173 -39 -338 -171 -419 -336 -56 -116 -72 -183 -78 -334 -11 -270 49 -447 202 -600 77 -76 155 -121 265 -151 91 -25 319 -25 409 0 242 67 405 254 457 524 8 40 14 126 14 190 -1 355 -148 593 -427 689 -67 22 -98 27 -218 29 -97 3 -160 -1 -205 -11z m293 -271 c95 -32 166 -123 198 -254 17 -72 18 -289 0 -360 -31 -127 -100 -222 -189 -263 -37 -17 -66 -22 -133 -22 -75 0 -92 4 -144 30 -101 52 -154 144 -176 312 -20 148 0 304 52 405 54 106 156 168 275 168 39 0 91 -7 117 -16z"
       id="path205" />
    <path
       d="M8410 5892 l0 -138 88 0 87 -1 3 -566 2 -567 165 0 165 0 0 705 0 705 -255 0 -255 0 0 -138z"
       id="path207" />
    <path
       d="M9000 6023 c0 -5 142 -329 316 -720 l316 -713 62 0 61 1 323 712 c177 392 322 715 322 720 0 4 -76 7 -170 7 l-169 0 -15 -27 c-7 -16 -86 -201 -175 -412 -89 -211 -166 -391 -171 -400 -7 -13 -11 -11 -20 14 -6 17 -72 185 -147 375 -74 190 -144 369 -155 398 l-19 52 -180 0 c-98 0 -179 -3 -179 -7z"
       id="path209" />
    <path
       d="M13812 5893 l3 -138 85 0 85 0 3 -567 2 -568 170 0 170 0 0 705 0 705 -260 0 -261 0 3 -137z"
       id="path211" />
    <path
       d="M25680 5889 l0 -141 90 4 90 3 0 -567 0 -568 168 0 167 0 -3 705 -2 705 -255 0 -255 0 0 -141z"
       id="path213" />
    <path
       d="M6355 4201 l-150 -37 -3 -262 c-1 -144 -5 -262 -7 -262 -3 0 -34 9 -68 21 -89 30 -241 37 -340 15 -122 -27 -209 -76 -302 -170 -92 -92 -150 -197 -181 -326 -25 -102 -25 -326 0 -425 56 -218 190 -367 386 -426 150 -45 363 -24 473 47 l37 24 0 -35 0 -35 160 0 160 0 0 955 c0 525 -3 955 -7 954 -5 -1 -75 -18 -158 -38z m-224 -813 l64 -33 0 -360 0 -360 -59 -29 c-70 -35 -149 -44 -239 -26 -204 40 -299 191 -284 448 15 256 143 391 373 392 72 0 88 -4 145 -32z"
       id="path215" />
    <path
       d="M14132 4201 l-153 -36 3 -845 3 -845 26 -56 c15 -31 39 -65 55 -76 95 -68 254 -47 337 45 40 45 46 62 22 62 -8 0 -33 18 -54 39 -74 74 -72 47 -71 936 0 435 -4 795 -8 801 -5 7 -55 -1 -160 -25z"
       id="path217" />
    <path
       d="M26800 4203 c-80 -20 -148 -41 -152 -47 -4 -6 -6 -125 -5 -263 1 -139 -2 -253 -6 -253 -4 0 -36 9 -70 21 -89 30 -241 37 -340 15 -119 -27 -209 -77 -298 -165 -89 -89 -137 -171 -175 -296 -23 -77 -27 -110 -28 -230 -2 -243 49 -393 178 -520 113 -112 232 -158 411 -159 112 0 221 26 287 70 40 26 48 22 44 -19 l-3 -27 158 0 159 0 0 955 c0 525 -3 955 -7 954 -5 -1 -73 -17 -153 -36z m-232 -814 c35 -16 65 -37 70 -48 4 -11 5 -174 2 -363 l-5 -343 -60 -30 c-55 -27 -69 -30 -155 -29 -194 1 -313 90 -354 264 -31 128 -18 278 33 386 51 109 142 175 267 193 80 11 127 4 202 -30z"
       id="path219" />
    <path
       d="M17483 4180 c-74 -14 -152 -45 -220 -89 -168 -109 -246 -313 -198 -519 41 -173 128 -264 380 -397 174 -91 250 -141 303 -200 137 -150 98 -336 -79 -374 -133 -29 -292 -1 -425 75 -43 24 -78 43 -79 41 -10 -14 -117 -288 -114 -291 12 -12 135 -69 182 -85 131 -45 375 -53 512 -17 163 44 307 153 365 277 55 119 60 281 11 409 -61 160 -134 225 -443 390 -206 110 -289 193 -296 297 -5 78 26 136 93 178 45 28 55 30 144 30 113 0 203 -24 295 -80 32 -19 60 -34 61 -33 5 6 95 270 95 277 0 16 -120 72 -197 91 -90 23 -309 34 -390 20z"
       id="path221" />
    <path
       d="M9488 4163 l-98 -4 0 -914 0 -915 165 0 165 0 0 333 0 332 148 0 c166 0 261 14 375 56 193 70 308 206 348 414 14 70 13 240 -2 300 -50 209 -201 327 -487 381 -78 15 -414 24 -614 17z m547 -306 c100 -28 174 -77 208 -140 18 -35 22 -57 21 -132 -1 -130 -39 -202 -133 -249 -77 -40 -235 -63 -345 -51 l-66 7 0 287 c0 158 3 291 8 296 11 11 250 -2 307 -18z"
       id="path223" />
    <path
       d="M21798 3996 c-75 -28 -139 -54 -142 -57 -3 -2 -6 -64 -7 -137 l-1 -132 -79 0 -79 0 0 -130 0 -130 80 0 80 0 -1 -382 c0 -405 3 -443 47 -529 52 -103 145 -167 276 -189 72 -13 289 0 361 20 l37 11 0 144 0 144 -55 -25 c-104 -48 -231 -45 -290 8 -60 52 -65 87 -65 465 l0 333 181 2 180 3 0 125 0 125 -180 3 -181 2 0 190 c0 146 -3 190 -12 189 -7 -1 -75 -24 -150 -53z"
       id="path225" />
    <path
       d="M7390 3683 c-210 -35 -412 -200 -493 -403 -43 -108 -51 -157 -50 -305 1 -221 47 -354 164 -480 139 -148 338 -210 597 -186 139 13 214 31 299 73 96 47 95 42 28 179 -59 118 -59 119 -80 100 -31 -30 -116 -69 -175 -82 -29 -6 -98 -9 -154 -7 -84 3 -111 8 -161 31 -67 31 -106 64 -141 120 -22 33 -54 132 -54 164 0 10 94 13 479 13 l478 0 12 69 c34 212 -21 401 -159 541 -78 79 -194 142 -305 165 -64 13 -225 18 -285 8z m261 -278 c90 -31 159 -118 175 -222 l7 -43 -326 0 -325 0 10 38 c34 123 121 213 235 242 51 12 167 5 224 -15z"
       id="path227" />
    <path
       d="M11080 3670 c-110 -23 -170 -47 -170 -69 1 -16 56 -221 62 -226 2 -2 37 8 78 22 98 34 285 39 365 10 83 -29 131 -84 142 -163 l6 -47 -39 8 c-21 4 -79 6 -127 6 -302 -3 -525 -119 -598 -311 -44 -115 -42 -272 4 -374 44 -95 154 -180 268 -205 184 -40 381 -2 487 94 l41 36 15 -29 c22 -43 89 -99 134 -113 62 -18 157 2 199 43 18 17 33 36 33 41 0 4 -13 25 -29 45 -59 74 -64 107 -71 457 -8 336 -14 394 -57 513 -50 143 -172 236 -351 268 -108 19 -288 17 -392 -6z m477 -713 c4 -5 8 -55 7 -112 -1 -92 -4 -110 -29 -160 -33 -69 -89 -108 -174 -123 -174 -31 -281 37 -281 176 1 112 80 194 214 222 50 11 251 8 263 -3z"
       id="path229" />
    <path
       d="M15047 3680 c-59 -10 -176 -46 -197 -59 -13 -9 -12 -19 4 -83 39 -153 46 -170 64 -162 129 55 303 68 421 33 58 -17 125 -78 139 -127 24 -81 33 -77 -156 -78 -152 0 -175 -3 -257 -28 -219 -66 -341 -197 -364 -393 -31 -257 94 -426 348 -470 158 -27 339 13 435 98 l45 40 15 -28 c24 -47 88 -101 134 -113 47 -12 122 -5 162 15 41 21 76 64 65 79 -85 114 -94 160 -96 481 -1 259 -9 357 -35 460 -44 171 -145 271 -320 320 -69 19 -331 29 -407 15z m438 -722 c11 -10 7 -198 -4 -237 -16 -51 -57 -105 -99 -128 -79 -45 -211 -50 -290 -12 -54 26 -82 79 -82 154 0 115 78 197 214 225 47 10 251 8 261 -2z"
       id="path231" />
    <path
       d="M18769 3675 c-93 -18 -189 -52 -189 -68 0 -7 14 -63 31 -125 26 -94 34 -112 48 -106 107 45 264 64 371 44 117 -21 180 -76 198 -171 l8 -44 -165 0 c-142 0 -177 -4 -244 -23 -174 -50 -289 -137 -348 -265 -29 -64 -34 -84 -37 -174 -6 -143 18 -220 92 -300 81 -87 170 -125 325 -138 133 -12 285 33 369 109 l41 37 15 -29 c23 -44 90 -100 135 -112 28 -7 60 -7 103 -1 55 9 68 16 102 52 34 36 37 43 23 51 -21 11 -62 82 -77 133 -8 25 -15 165 -20 370 -7 289 -10 340 -29 410 -52 197 -140 288 -326 340 -85 23 -326 29 -426 10z m440 -711 l31 -6 0 -82 c0 -97 -22 -188 -55 -232 -14 -18 -50 -45 -80 -59 -47 -23 -67 -27 -139 -26 -49 0 -99 6 -118 14 -72 30 -108 108 -93 203 12 85 99 162 206 183 53 11 204 13 248 5z"
       id="path233" />
    <path
       d="M20530 3684 c-88 -17 -177 -60 -232 -112 -15 -14 -29 -24 -31 -21 -1 2 -15 30 -30 62 l-27 57 -110 0 -110 0 0 -670 0 -670 155 0 155 0 0 484 0 484 46 41 c136 120 376 114 447 -10 54 -95 56 -122 57 -611 l0 -388 156 0 155 0 -3 483 c-3 468 -4 484 -26 548 -47 141 -144 244 -278 295 -57 22 -89 27 -184 29 -63 2 -126 1 -140 -1z"
       id="path235" />
    <path
       d="M22940 3670 c-110 -23 -170 -47 -170 -69 0 -19 55 -220 63 -227 3 -3 18 1 34 9 86 44 314 57 409 24 80 -28 144 -109 144 -182 0 -21 -3 -21 -118 -17 -277 10 -493 -72 -599 -226 -55 -80 -75 -151 -75 -261 -1 -149 46 -255 140 -325 177 -129 481 -122 644 15 l47 40 15 -29 c23 -44 90 -100 135 -112 80 -21 180 8 216 64 16 25 16 27 -9 57 -63 75 -75 146 -77 457 -1 256 -9 355 -35 457 -48 185 -163 288 -366 329 -104 22 -289 20 -398 -4z m448 -706 c28 -6 31 -10 37 -63 8 -75 -10 -186 -41 -238 -43 -74 -150 -117 -268 -107 -114 10 -176 73 -176 180 0 102 68 182 182 215 63 18 206 25 266 13z"
       id="path237" />
    <path
       d="M24690 3676 c-70 -15 -160 -60 -196 -97 -15 -16 -31 -29 -35 -29 -3 0 -18 27 -33 60 l-26 61 -112 -3 -113 -3 -3 -667 -3 -668 161 0 160 0 0 484 0 484 41 37 c68 61 141 90 229 90 94 0 157 -23 204 -75 68 -75 75 -140 76 -667 l0 -353 156 0 155 0 -3 478 c-4 468 -4 478 -27 547 -56 169 -176 280 -343 320 -75 17 -211 18 -288 1z"
       id="path239" />
    <path
       d="M27780 3671 c-151 -42 -301 -150 -385 -277 -134 -201 -150 -531 -38 -764 46 -96 150 -203 242 -249 169 -86 416 -101 641 -40 76 20 161 61 182 86 9 11 -1 39 -47 133 l-58 118 -36 -28 c-74 -59 -132 -74 -281 -75 -125 0 -139 2 -190 26 -103 49 -158 113 -185 216 -8 32 -15 63 -15 70 0 10 98 13 478 15 l477 3 12 55 c63 304 -103 599 -392 696 -107 36 -304 43 -405 15z m314 -267 c66 -23 128 -86 155 -158 11 -31 21 -68 21 -81 l0 -25 -324 0 -324 0 10 38 c34 123 121 213 235 242 52 13 168 5 227 -16z"
       id="path241" />
    <path
       d="M29483 3680 c-61 -13 -121 -41 -175 -83 -27 -20 -49 -36 -49 -34 -2 3 -6 53 -8 85 -1 22 -2 22 -156 22 l-155 0 0 -670 0 -670 160 0 161 0 -1 423 c-1 400 0 426 19 476 25 68 80 134 139 168 62 37 160 38 240 3 31 -13 57 -19 61 -14 5 5 35 64 67 132 63 135 63 131 -6 153 -46 14 -243 20 -297 9z"
       id="path243" />
    <path
       d="M12320 3668 c0 -2 0 -224 -1 -494 0 -424 2 -500 16 -555 56 -213 197 -314 440 -313 116 0 206 24 320 82 38 20 73 38 76 40 3 1 5 -20 3 -48 l-2 -50 159 0 159 0 0 670 0 671 -157 -3 -158 -3 -2 -450 c-1 -247 -4 -461 -7 -475 -7 -36 -71 -97 -141 -133 -56 -29 -67 -32 -161 -32 -92 0 -104 2 -141 27 -26 17 -49 45 -64 75 l-24 48 -3 473 -3 472 -154 0 c-85 0 -155 -1 -155 -2z"
       id="path245" />
    <path
       d="M17370 1748 c26 -79 80 -235 120 -348 40 -113 84 -241 99 -285 l28 -80 41 -3 c49 -4 36 -29 128 238 36 107 91 265 121 350 30 85 63 181 73 213 l18 57 -38 0 -37 0 -41 -117 c-23 -65 -80 -234 -128 -375 -47 -142 -89 -258 -93 -258 -6 0 -28 61 -167 470 -40 118 -78 230 -84 248 -11 28 -16 32 -50 32 l-39 0 49 -142z"
       id="path247" />
    <path
       d="M18120 1840 l0 -50 40 0 40 0 0 50 0 50 -40 0 -40 0 0 -50z"
       id="path249" />
    <path
       d="M19120 1840 l0 -50 40 0 40 0 0 50 0 50 -40 0 -40 0 0 -50z"
       id="path251" />
    <path
       d="M19390 1460 l0 -430 35 0 35 0 0 430 0 430 -35 0 -35 0 0 -430z"
       id="path253" />
    <path
       d="M20790 1724 l0 -166 -29 31 c-69 74 -218 100 -306 54 -101 -54 -147 -135 -153 -272 -8 -163 31 -263 125 -318 43 -25 57 -28 138 -28 82 0 94 3 135 29 25 15 56 42 68 59 l22 32 0 -58 0 -57 35 0 35 0 0 430 0 430 -35 0 -35 0 0 -166z m-132 -134 c53 -24 75 -48 109 -118 23 -49 25 -63 21 -145 -5 -105 -25 -155 -82 -205 -92 -80 -253 -45 -308 67 -30 61 -37 186 -14 265 37 125 162 187 274 136z"
       id="path255" />
    <path
       d="M22060 1460 l0 -430 35 0 35 0 0 387 c0 213 4 383 8 378 5 -6 66 -167 137 -360 70 -192 134 -362 142 -377 11 -22 21 -28 46 -28 l32 0 89 243 c168 457 188 512 197 522 5 5 9 -155 9 -378 l0 -387 35 0 35 0 0 430 0 430 -59 0 -58 0 -66 -177 c-36 -98 -98 -267 -137 -375 -40 -109 -75 -198 -79 -198 -3 0 -15 24 -25 53 -10 28 -72 197 -139 375 l-120 322 -58 0 -59 0 0 -430z"
       id="path257" />
    <path
       d="M23060 1840 l0 -50 35 0 35 0 0 50 0 50 -35 0 -35 0 0 -50z"
       id="path259" />
    <path
       d="M25130 1725 c0 -91 -3 -165 -6 -165 -3 0 -16 13 -30 29 -54 65 -173 94 -269 67 -130 -38 -203 -168 -193 -345 7 -109 35 -177 94 -230 51 -44 100 -61 180 -61 75 0 148 33 192 86 l31 39 1 -57 0 -58 35 0 35 0 0 430 0 430 -35 0 -35 0 0 -165z m-157 -126 c53 -14 100 -60 128 -121 18 -42 23 -70 23 -138 0 -157 -67 -248 -190 -258 -151 -13 -245 103 -231 286 6 84 43 173 83 199 60 39 123 50 187 32z"
       id="path261" />
    <path
       d="M28060 1840 l0 -50 35 0 35 0 0 50 0 50 -35 0 -35 0 0 -50z"
       id="path263" />
    <path
       d="M28569 1813 c-28 -38 -57 -74 -63 -81 -8 -11 -4 -13 19 -11 29 4 41 14 135 112 l44 47 -41 0 c-39 0 -44 -4 -94 -67z"
       id="path265" />
    <path
       d="M18567 1660 c-133 -34 -200 -135 -201 -305 -1 -130 21 -193 88 -261 63 -62 110 -78 206 -72 72 5 111 22 167 71 l36 32 -6 -72 c-12 -148 -79 -212 -222 -212 -78 -1 -138 26 -166 74 -17 29 -27 35 -55 35 -39 0 -39 0 -20 -43 35 -84 145 -133 276 -124 128 8 191 50 236 157 17 40 19 78 22 378 l3 332 -35 0 -36 0 0 -52 0 -51 -37 37 c-71 71 -165 98 -256 76z m136 -61 c187 -52 216 -396 42 -497 -33 -19 -52 -22 -106 -20 -116 6 -178 70 -200 207 -33 205 96 357 264 310z"
       id="path267" />
    <path
       d="M19830 1661 c-92 -19 -165 -84 -177 -155 -6 -37 -6 -37 27 -34 27 2 35 9 43 33 23 72 108 114 203 101 90 -12 124 -48 124 -131 0 -60 -18 -70 -164 -90 -130 -18 -193 -41 -231 -87 -31 -37 -39 -66 -33 -127 9 -94 83 -151 194 -151 78 0 122 13 184 55 29 19 54 35 56 35 2 0 4 -11 4 -23 0 -13 8 -31 18 -39 43 -38 122 -28 122 15 0 21 -4 23 -31 19 -20 -3 -34 0 -40 9 -5 8 -9 111 -9 229 0 205 -1 217 -23 255 -30 54 -88 84 -169 90 -35 2 -79 1 -98 -4z m205 -480 c-34 -67 -120 -106 -222 -99 -59 4 -69 7 -95 37 -27 30 -30 39 -26 82 3 27 11 56 19 65 25 30 91 52 190 63 53 6 107 15 120 20 24 8 24 7 27 -65 2 -51 -2 -82 -13 -103z"
       id="path269" />
    <path
       d="M21235 1664 c-91 -23 -146 -62 -170 -122 -24 -57 -20 -72 19 -72 31 0 34 3 40 34 13 67 104 114 199 103 90 -11 127 -49 127 -132 0 -58 -19 -71 -135 -85 -139 -17 -217 -43 -254 -85 -37 -42 -45 -70 -39 -134 9 -97 83 -151 204 -151 74 0 131 20 191 66 39 30 43 30 43 1 0 -43 54 -72 111 -60 23 4 29 11 29 32 0 25 -3 27 -35 23 -45 -5 -44 -7 -47 258 -3 209 -4 216 -27 249 -13 18 -44 42 -67 53 -44 19 -151 31 -189 22z m200 -483 c-8 -17 -30 -41 -47 -54 -94 -69 -248 -62 -288 14 -15 27 -8 103 11 126 25 29 92 51 190 62 53 6 107 15 120 20 24 8 24 7 27 -65 2 -51 -2 -82 -13 -103z"
       id="path271" />
    <path
       d="M23530 1661 c-38 -12 -82 -37 -115 -66 l-30 -27 -3 41 c-3 39 -4 41 -38 41 l-34 0 0 -310 0 -310 35 0 35 0 0 196 c0 228 8 272 60 324 81 81 230 75 277 -13 15 -27 18 -67 21 -269 l4 -238 29 0 29 0 0 234 c0 128 -3 248 -7 267 -10 52 -77 112 -141 127 -59 13 -85 14 -122 3z"
       id="path273" />
    <path
       d="M24142 1651 c-66 -23 -125 -78 -160 -151 -24 -50 -27 -66 -27 -165 0 -121 18 -180 73 -239 74 -79 228 -102 332 -48 58 29 100 74 125 135 l15 37 -38 0 c-35 0 -40 -3 -56 -41 -48 -107 -220 -136 -309 -51 -39 37 -65 89 -73 151 l-7 51 243 0 243 0 -5 64 c-12 139 -89 242 -199 265 -68 15 -95 13 -157 -8z m161 -55 c21 -8 48 -22 59 -33 29 -25 68 -112 68 -150 l0 -33 -206 0 -206 0 7 33 c20 95 67 156 142 183 48 17 88 17 136 0z"
       id="path275" />
    <path
       d="M26214 1652 c-82 -29 -121 -66 -165 -157 -21 -44 -24 -64 -24 -160 0 -120 14 -168 70 -233 50 -59 97 -77 205 -77 85 0 100 3 141 27 46 27 89 79 108 131 18 47 14 57 -23 57 -29 0 -35 -4 -41 -27 -12 -49 -46 -93 -88 -114 -32 -17 -54 -20 -108 -17 -58 3 -74 8 -106 34 -20 17 -49 53 -62 80 -21 41 -25 63 -26 139 0 110 20 169 75 219 37 33 92 56 135 56 70 0 144 -51 172 -117 11 -28 18 -33 48 -33 l34 0 -13 44 c-30 98 -103 153 -217 162 -47 3 -78 0 -115 -14z"
       id="path277" />
    <path
       d="M26891 1661 c-95 -25 -153 -77 -171 -155 -8 -36 -8 -36 25 -36 29 0 34 4 50 45 12 34 26 50 53 64 88 45 187 38 240 -15 30 -30 33 -37 30 -86 -4 -66 -14 -72 -169 -94 -193 -26 -261 -75 -262 -187 -1 -104 66 -169 182 -175 84 -5 136 9 200 53 l51 35 6 -24 c11 -45 45 -62 112 -58 16 2 22 8 22 27 0 21 -5 25 -29 25 -17 0 -31 6 -35 16 -3 9 -6 109 -6 223 0 198 -1 210 -23 252 -30 57 -89 88 -177 94 -36 2 -80 0 -99 -4z m229 -371 c0 -85 -17 -129 -61 -162 -46 -34 -91 -48 -156 -48 -98 0 -143 37 -143 118 0 77 56 114 202 131 53 6 107 15 120 20 37 15 38 14 38 -59z"
       id="path279" />
    <path
       d="M27557 1656 c-168 -47 -251 -271 -175 -473 23 -62 100 -137 156 -153 49 -13 146 -13 193 2 73 21 137 95 164 186 6 22 4 23 -30 20 -33 -3 -38 -7 -50 -42 -27 -77 -88 -116 -182 -116 -128 0 -205 98 -205 260 0 83 18 145 58 197 83 109 271 87 321 -38 14 -35 19 -39 50 -39 33 0 35 1 28 28 -18 75 -65 130 -133 159 -48 20 -140 25 -195 9z"
       id="path281" />
    <path
       d="M28505 1664 c-95 -24 -150 -67 -193 -148 -25 -47 -27 -60 -27 -171 0 -111 2 -124 28 -177 66 -134 231 -186 374 -119 104 49 157 149 157 291 0 144 -52 248 -147 294 -51 25 -150 40 -192 30z m163 -84 c69 -39 102 -115 102 -235 0 -179 -80 -272 -224 -263 -80 5 -125 34 -163 103 -54 100 -41 275 27 357 56 67 175 85 258 38z"
       id="path283" />
    <path
       d="M29190 1658 c-19 -5 -59 -27 -87 -49 l-53 -40 0 41 c0 39 -1 40 -35 40 l-35 0 2 -307 3 -308 33 -3 32 -3 0 196 c0 114 5 215 11 242 30 118 175 178 280 116 54 -32 59 -58 59 -317 l0 -236 35 0 35 0 0 243 c0 215 -3 247 -19 283 -40 89 -153 133 -261 102z"
       id="path285" />
    <path
       d="M18130 1340 l0 -310 30 0 30 0 0 310 0 310 -30 0 -30 0 0 -310z"
       id="path287" />
    <path
       d="M19130 1340 l0 -310 30 0 30 0 0 310 0 310 -30 0 -30 0 0 -310z"
       id="path289" />
    <path
       d="M23060 1340 l0 -310 35 0 35 0 0 310 0 310 -35 0 -35 0 0 -310z"
       id="path291" />
    <path
       d="M25382 1408 c3 -273 8 -294 80 -351 31 -25 49 -30 107 -35 83 -6 142 13 192 59 17 16 33 29 35 29 2 0 4 -18 4 -40 0 -39 1 -40 35 -40 l35 0 0 310 0 310 -34 0 -35 0 -3 -217 c-3 -211 -4 -219 -28 -261 -48 -84 -163 -118 -250 -74 -64 32 -70 57 -70 320 l0 232 -36 0 -35 0 3 -242z"
       id="path293" />
    <path
       d="M28060 1340 l0 -310 35 0 35 0 0 310 0 310 -35 0 -35 0 0 -310z"
       id="path295" />
  </g>
</svg>
